<?xml version="1.0" encoding="utf-8"?>
<!-- Generator: Adobe Illustrator 25.3.1, SVG Export Plug-In . SVG Version: 6.00 Build 0)  -->
<svg version="1.1" id="Layer_1" xmlns="http://www.w3.org/2000/svg" xmlns:xlink="http://www.w3.org/1999/xlink" x="0px" y="0px"
	 viewBox="0 0 16 16" style="enable-background:new 0 0 16 16;" xml:space="preserve">
<g>
	<path d="M1.6,11.5l0-7.2H0.9v9.1c1.1-0.3,2.2-0.5,3.3-0.5c1,0,2.1,0.1,3.1,0.5c-0.6-0.5-1.4-0.9-2.1-1.2c-1-0.3-2-0.4-3.1-0.3
		C1.9,12,1.7,11.8,1.6,11.5C1.6,11.5,1.6,11.5,1.6,11.5L1.6,11.5z M13.5,3.9C13.5,3.9,13.5,3.9,13.5,3.9c0-0.1,0-0.1,0-0.1V2.4
		c-1-0.1-2.1,0-3,0.4C9.7,3,8.9,3.6,8.4,4.3v8.2c0.7-0.5,1.5-0.9,2.3-1.2c0.9-0.3,1.8-0.5,2.8-0.4V3.9L13.5,3.9z M14.4,3.4h1.2
		c0.2,0,0.4,0.2,0.4,0.4V14c0,0.2-0.2,0.4-0.4,0.4c0,0-0.1,0-0.1,0c-1.2-0.4-2.4-0.6-3.6-0.6c-1.2,0-2.3,0.2-3.5,0.7
		c-0.1,0-0.2,0.1-0.2,0.1c-0.1,0-0.2,0-0.2-0.1c-1.2-0.5-2.4-0.7-3.5-0.7c-1.2,0-2.4,0.2-3.6,0.6c0,0-0.1,0-0.1,0
		C0.2,14.4,0,14.2,0,14V3.9c0-0.2,0.2-0.4,0.4-0.4h1.3l0-1.5c0-0.2,0.1-0.4,0.3-0.4l0,0c1.2-0.2,2.6-0.2,3.8,0.3
		C6.7,2.2,7.5,2.7,8,3.4c0.6-0.7,1.3-1.2,2.2-1.5c1.2-0.4,2.5-0.6,3.8-0.4c0.2,0,0.4,0.2,0.4,0.4l0,0L14.4,3.4L14.4,3.4z M8.9,13.4
		c1-0.3,1.9-0.4,2.9-0.4c1.1,0,2.2,0.2,3.3,0.5V4.3h-0.8v7.2c0,0.2-0.2,0.4-0.4,0.4c0,0-0.1,0-0.1,0c-1-0.2-1.9,0-2.8,0.3
		C10.3,12.5,9.6,12.9,8.9,13.4L8.9,13.4z M7.6,12.5V4.3C7.1,3.5,6.4,3,5.5,2.6c-1-0.4-2-0.4-3-0.3l0,8.7c1,0,2,0.1,2.9,0.4
		C6.2,11.7,6.9,12,7.6,12.5L7.6,12.5z"/>
</g>
</svg>
